<?xml version="1.0" standalone="no"?>
<!DOCTYPE svg PUBLIC "-//W3C//DTD SVG 20010904//EN"
 "http://www.w3.org/TR/2001/REC-SVG-20010904/DTD/svg10.dtd">
<svg version="1.0" xmlns="http://www.w3.org/2000/svg"
 width="170.000000pt" height="170.000000pt" viewBox="0 0 170.000000 170.000000"
 preserveAspectRatio="xMidYMid meet">
<metadata>
Created by potrace 1.15, written by Peter Selinger 2001-2017
</metadata>
<g transform="translate(0.000000,170.000000) scale(0.100000,-0.100000)"
fill="#000000" stroke="none">
<path d="M0 850 l0 -850 850 0 850 0 0 850 0 850 -850 0 -850 0 0 -850z m658
384 c2 -38 7 -73 12 -78 5 -5 31 11 61 38 88 79 139 101 239 101 94 0 141 -18
192 -72 59 -61 62 -81 68 -411 6 -342 0 -322 88 -344 23 -6 42 -14 42 -18 0
-5 -101 -9 -225 -9 -124 0 -225 3 -225 8 0 4 22 13 49 20 87 22 86 17 89 307
2 167 -1 268 -8 296 -42 156 -278 170 -352 21 -22 -46 -23 -60 -26 -283 -4
-291 -1 -306 75 -335 29 -11 53 -23 53 -27 0 -4 -101 -7 -225 -7 -124 0 -225
4 -225 8 0 5 22 14 49 21 82 19 85 27 93 224 8 199 0 379 -17 402 -6 9 -29 19
-50 23 -21 3 -40 11 -41 16 -2 6 25 23 60 38 35 16 94 53 132 82 38 30 74 52
79 51 6 -1 11 -34 13 -72z"/>
</g>
</svg>
