<?xml version="1.0" standalone="no"?>
<!DOCTYPE svg PUBLIC "-//W3C//DTD SVG 20010904//EN"
 "http://www.w3.org/TR/2001/REC-SVG-20010904/DTD/svg10.dtd">
<svg version="1.0" xmlns="http://www.w3.org/2000/svg"
 width="926.000000pt" height="680.000000pt" viewBox="0 0 926.000000 680.000000"
 preserveAspectRatio="xMidYMid meet">
<metadata>
Created by potrace 1.15, written by Peter Selinger 2001-2017
</metadata>
<g transform="translate(0.000000,680.000000) scale(0.100000,-0.100000)"
fill="#000000" stroke="none">
<path d="M2625 6689 c-16 -4 -61 -17 -100 -28 -38 -11 -115 -34 -170 -51 -113
-35 -163 -50 -185 -54 -8 -1 -22 -5 -30 -9 -8 -4 -37 -13 -65 -21 -142 -39
-372 -108 -385 -115 -9 -5 -36 -12 -60 -16 -25 -4 -61 -13 -80 -20 -34 -13
-179 -57 -290 -88 -30 -8 -109 -32 -175 -52 -126 -38 -210 -62 -310 -91 -33
-9 -89 -26 -125 -38 l-65 -22 -3 -75 c-3 -75 -3 -76 -27 -71 -33 6 -32 -15 0
-30 l25 -11 0 -359 0 -359 -22 3 c-31 4 -34 -20 -4 -28 l26 -6 0 -364 c0 -353
-1 -364 -19 -355 -18 10 -31 6 -31 -11 0 -5 11 -14 25 -20 19 -9 25 -19 25
-44 0 -32 3 -34 117 -90 64 -32 111 -60 105 -62 -26 -8 -10 -22 26 -23 45 0
466 -207 468 -230 2 -27 4 -28 26 -20 13 4 30 5 38 1 8 -4 113 -55 232 -114
176 -86 216 -109 211 -122 -5 -14 -2 -16 20 -10 21 5 62 -12 199 -80 l171 -86
81 22 c45 12 108 30 142 40 54 15 64 16 89 2 27 -13 28 -13 23 6 -5 18 2 24
56 41 151 49 237 70 271 64 28 -4 35 -2 35 10 0 11 15 20 43 28 23 6 75 22
116 35 40 13 83 24 95 24 12 0 28 6 34 12 10 10 17 10 32 0 27 -16 43 -15 36
3 -4 11 13 20 67 36 40 11 107 32 150 46 45 14 92 23 110 20 21 -3 36 1 47 13
22 26 295 101 325 90 26 -10 39 -2 25 15 -7 9 5 15 48 25 31 8 60 14 64 14 3
1 10 4 14 9 4 4 14 7 23 7 8 0 46 10 83 21 57 18 73 20 95 10 24 -11 25 -10
19 11 -3 13 -6 417 -6 899 l0 876 -408 202 c-224 112 -587 293 -807 402 -220
110 -409 199 -420 198 -11 -1 -33 -5 -50 -10z m45 -640 l0 -609 -22 -10 c-13
-5 -63 -21 -113 -35 -49 -14 -128 -38 -175 -52 -186 -56 -160 -54 -241 -14
-110 55 -137 110 -90 189 92 157 133 358 96 478 -19 61 -38 84 -93 108 -38 17
-49 18 -89 8 -114 -31 -247 -165 -331 -335 -28 -56 -54 -114 -58 -129 -3 -16
-8 -28 -11 -28 -10 0 -109 52 -123 66 -9 7 -34 20 -55 27 -86 30 -390 189
-428 223 -27 25 -45 34 -59 31 -20 -6 -228 88 -228 103 0 6 44 19 280 90 36
10 128 38 205 60 77 23 158 46 180 51 22 5 47 13 55 16 8 4 20 7 25 8 6 1 19
4 30 7 253 78 327 99 346 103 29 6 74 19 329 97 36 11 97 28 135 38 39 10 108
30 155 45 47 15 114 35 150 45 36 10 76 23 90 28 14 5 28 8 33 5 4 -2 7 -279
7 -614z m417 423 c208 -104 553 -276 767 -382 l390 -194 -99 -32 c-55 -18
-102 -32 -105 -32 -3 1 -12 -2 -20 -5 -8 -3 -38 -13 -67 -21 -51 -14 -52 -14
-67 9 -9 14 -16 28 -16 34 0 18 -98 108 -141 129 -68 33 -145 25 -199 -20 -44
-37 -92 -108 -106 -155 -14 -48 -27 -65 -36 -45 -1 4 -22 20 -46 35 -178 116
-284 120 -337 14 -28 -57 -10 -191 33 -240 8 -9 13 -19 11 -20 -2 -2 -47 -16
-99 -31 -52 -16 -115 -35 -140 -43 -25 -8 -60 -16 -77 -19 l-33 -4 0 605 c0
333 2 605 4 605 2 0 174 -85 383 -188z m-1024 -415 c40 -49 50 -81 50 -162 1
-120 -39 -256 -108 -364 -19 -31 -32 -40 -57 -43 -25 -2 -34 -8 -36 -25 -2
-13 -6 -23 -10 -23 -4 0 -77 36 -162 79 -165 83 -162 79 -148 147 6 34 61 154
70 154 4 0 8 4 8 10 0 14 79 120 118 158 32 31 122 97 122 88 0 -2 12 0 28 4
41 13 104 1 125 -23z m-1336 -59 c60 -29 109 -53 110 -54 1 0 -8 -20 -20 -45
-19 -39 -22 -63 -25 -199 -3 -126 0 -172 16 -245 17 -75 18 -94 7 -115 -21
-41 -45 -153 -45 -206 1 -102 28 -167 88 -206 77 -51 187 15 262 154 l31 58
39 -26 c49 -33 128 -35 193 -5 57 26 150 110 171 156 l17 35 32 -24 c18 -13
42 -27 55 -31 17 -5 22 -14 22 -40 0 -27 5 -36 30 -47 35 -15 38 -37 11 -76
-14 -19 -18 -37 -14 -59 5 -31 7 -33 49 -33 37 0 44 3 44 20 0 11 5 20 10 20
6 0 10 -16 10 -35 0 -28 -4 -35 -20 -35 -12 0 -20 -7 -20 -17 0 -14 -9 -18
-42 -18 l-43 0 0 -45 c0 -45 0 -45 37 -48 28 -2 40 2 51 18 22 31 61 24 65
-12 3 -28 -28 -55 -48 -43 -12 8 -63 -42 -55 -54 3 -5 -4 -12 -15 -16 -11 -3
-23 -17 -26 -31 -3 -13 -12 -24 -18 -24 -7 0 -62 -16 -122 -35 -60 -19 -120
-37 -134 -39 -14 -2 -25 -5 -25 -6 0 -1 -7 -3 -15 -6 -18 -4 -50 -13 -325 -94
-116 -33 -241 -70 -280 -81 -38 -11 -88 -27 -110 -35 -23 -8 -46 -14 -53 -14
-9 0 -12 188 -12 845 0 465 2 845 5 845 3 0 53 -24 112 -52z m3020 -61 c31
-18 123 -129 123 -148 0 -4 -19 -11 -42 -17 -39 -10 -44 -9 -79 19 -50 39
-117 69 -158 69 -39 0 -91 -29 -122 -68 l-21 -27 8 30 c16 68 90 152 146 165
45 11 103 2 145 -23z m-2827 -39 c52 -35 77 -107 115 -330 3 -20 0 -28 -11
-28 -30 0 -93 -40 -133 -86 -22 -26 -41 -44 -41 -41 0 3 -7 41 -15 84 -17 87
-18 305 -2 363 20 67 35 73 87 38z m3350 -877 c0 -465 -1 -845 -3 -847 -2 -1
-364 177 -467 231 -25 13 -241 120 -481 238 -430 212 -436 216 -458 258 -26
49 -22 54 51 64 47 7 59 17 37 30 -5 4 -15 18 -20 32 -6 16 -15 23 -24 19 -8
-3 -17 -1 -20 4 -3 4 0 10 6 12 8 3 7 13 -5 35 -21 42 -21 43 17 43 17 0 42 3
54 6 20 6 21 7 7 41 -9 19 -13 37 -11 40 3 2 23 3 46 1 l41 -3 -25 -37 c-30
-44 -31 -58 -6 -58 11 0 18 -7 17 -17 -1 -13 8 -17 34 -18 55 -3 64 7 40 38
-19 24 -20 28 -5 33 14 6 14 9 0 30 -9 14 -13 29 -10 35 4 5 -1 21 -9 34 -15
23 -15 25 -1 25 12 0 15 6 10 23 -4 12 -11 26 -16 31 -16 17 -10 26 16 26 29
0 30 7 10 34 -19 25 -19 46 0 46 8 0 31 -23 51 -50 20 -28 43 -54 52 -59 13
-8 14 -13 5 -21 -8 -9 -14 -7 -22 9 -7 12 -16 21 -21 21 -9 0 -50 -61 -50 -75
0 -4 37 -5 81 -1 64 5 85 4 98 -8 24 -21 122 -72 153 -80 19 -4 34 -21 54 -61
16 -30 41 -69 56 -85 15 -17 31 -37 35 -44 4 -7 30 -28 57 -45 40 -25 61 -31
103 -31 53 0 113 21 113 40 0 5 15 16 33 24 37 15 84 66 103 112 35 83 22 264
-27 371 -12 27 -19 64 -19 105 0 56 -15 132 -34 179 -6 12 5 18 51 29 32 7 62
17 68 22 5 4 18 8 30 9 11 0 58 13 105 29 47 15 88 27 93 26 4 0 7 -381 7
-845z m-3000 697 c0 -5 -7 -8 -15 -8 -40 0 -124 -123 -125 -182 0 -32 -7 -34
-37 -13 -15 10 -23 30 -28 71 -4 31 -20 104 -36 161 -16 57 -29 105 -29 108 0
3 61 -26 135 -63 74 -37 135 -70 135 -74z m1960 108 c49 -23 100 -54 117 -72
8 -8 23 -19 34 -25 16 -8 19 -19 17 -46 -3 -40 5 -36 -158 -83 -41 -12 -94
-29 -118 -38 -25 -9 -46 -11 -51 -6 -17 17 -43 109 -47 164 -8 94 30 134 121
127 28 -3 66 -12 85 -21z m458 -22 c18 -10 32 -22 32 -25 0 -4 10 -11 22 -15
30 -9 17 -15 -136 -59 -107 -31 -130 -35 -141 -24 -19 21 -1 71 40 114 33 36
36 37 93 33 32 -3 73 -13 90 -24z m122 -101 c11 -10 20 -23 20 -29 0 -6 7 -18
16 -25 9 -7 20 -22 26 -34 5 -11 18 -36 29 -55 22 -40 24 -77 8 -152 -14 -65
-23 -77 -39 -47 -34 63 -101 126 -165 155 -49 23 -63 25 -87 16 -27 -10 -30
-8 -73 48 -50 66 -52 70 -27 70 9 0 37 7 62 15 78 26 174 53 192 54 10 1 27
-7 38 -16z m-2400 -49 c44 -24 88 -80 105 -134 l7 -23 -32 23 c-28 20 -40 22
-114 18 -86 -4 -127 -21 -186 -75 -34 -31 -40 -29 -40 12 0 70 23 128 68 173
24 23 47 40 50 38 4 -2 16 0 27 4 23 8 49 0 115 -36z m1990 -84 c0 -55 19
-137 45 -195 17 -36 22 -65 21 -105 -2 -52 -4 -55 -27 -51 -50 7 -174 90 -185
123 -3 10 -13 18 -23 18 -23 0 -150 155 -133 163 4 2 25 9 47 15 70 19 220 63
230 67 22 8 25 3 25 -35z m-1640 -90 c80 -40 147 -74 150 -77 8 -7 -83 -82
-107 -89 -13 -3 -23 -9 -23 -13 0 -4 -15 -12 -32 -18 -88 -29 -168 15 -168 92
0 22 -4 45 -9 51 -12 11 -16 103 -6 126 8 21 9 21 195 -72z m-297 26 c35 -14
69 -57 68 -84 -1 -9 -3 -30 -5 -47 -3 -16 -5 -38 -5 -48 -1 -9 -22 -39 -48
-66 -76 -78 -149 -78 -228 -2 -51 48 -63 67 -70 109 -6 36 -3 42 27 71 18 17
36 31 40 31 4 0 13 6 20 13 32 33 148 46 201 23z m-425 -123 c-3 -96 -9 -137
-22 -165 -32 -66 -71 -48 -129 59 -9 18 -15 33 -13 33 2 0 0 16 -4 35 -7 30
-4 40 20 70 33 42 68 71 102 84 51 21 51 20 46 -116z m2012 118 c0 -5 -7 -14
-15 -21 -17 -14 -20 -40 -5 -40 6 0 -3 -24 -19 -54 -15 -29 -31 -64 -35 -77
-3 -13 -15 -35 -25 -49 l-20 -25 -10 28 c-8 22 -16 27 -30 22 -13 -4 -21 0
-25 12 -5 16 -48 43 -67 43 -4 0 -9 -9 -12 -21 -4 -15 -11 -19 -25 -15 -15 5
-23 -1 -36 -29 -9 -19 -19 -35 -21 -35 -3 0 -5 27 -5 60 l0 59 35 7 c35 6 44
21 24 41 -8 8 10 17 63 33 40 12 105 32 143 45 81 27 85 28 85 16z m-1942 -34
c26 -39 27 -62 7 -110 -20 -48 -20 -146 1 -175 14 -20 13 -25 -3 -59 -48 -103
-136 -183 -201 -183 -33 0 -44 5 -66 34 -37 48 -47 82 -48 151 -1 65 30 212
42 198 4 -4 13 -24 19 -45 17 -51 86 -128 117 -128 60 0 94 89 94 248 0 56 3
102 8 102 4 0 17 -15 30 -33z m2605 19 c56 -25 147 -132 147 -174 0 -25 -25
-62 -42 -62 -4 0 -8 10 -8 22 0 24 -41 101 -73 136 -24 26 -63 29 -88 6 -17
-15 -18 -14 -24 20 -4 20 -11 39 -16 42 -40 25 50 33 104 10z m-119 -60 c16
-54 14 -171 -4 -189 -9 -10 -90 80 -91 102 -3 42 5 69 33 103 16 21 33 38 38
38 5 0 16 -24 24 -54z m378 -66 c16 -63 18 -206 5 -244 -12 -32 -50 -86 -61
-86 -3 0 -1 11 4 24 14 37 7 200 -9 220 -11 14 -10 23 7 64 11 26 23 63 28 82
7 31 8 32 11 10 2 -14 9 -45 15 -70z m-223 -5 c28 -41 44 -100 37 -131 -5 -17
-16 -25 -42 -30 -30 -6 -102 0 -109 8 -1 2 0 43 4 93 5 81 8 91 30 101 29 15
48 5 80 -41z m-1109 20 c0 -8 7 -15 15 -15 12 0 15 -18 15 -100 0 -62 -5 -108
-12 -121 -10 -17 -10 -23 0 -26 20 -7 17 -149 -4 -157 -29 -11 -39 -6 -58 34
-19 41 -30 48 -41 30 -13 -20 -27 -10 -21 15 6 24 4 25 -39 25 l-45 0 6 -39
c4 -28 1 -46 -11 -65 -24 -35 -45 -34 -45 4 0 30 -1 30 -57 32 -32 1 -66 2
-76 2 -11 1 -28 13 -38 28 -17 23 -19 41 -17 134 2 86 6 108 18 110 8 1 29 7
45 13 17 6 71 22 120 37 50 14 122 36 160 49 86 29 85 29 85 10z m-487 -92
c26 -13 27 -15 27 -103 0 -71 -3 -90 -14 -90 -8 0 -16 -6 -19 -12 -3 -9 -10
-6 -22 10 -19 26 -32 28 -57 5 -17 -15 -18 -15 -18 0 0 10 5 17 10 17 7 0 7 6
0 19 -13 26 -13 31 5 31 12 0 15 15 15 76 0 83 1 84 73 47z m-647 -48 c-21
-25 -41 -45 -45 -45 -5 0 -19 -11 -32 -24 -35 -34 -91 -49 -165 -44 -48 3 -70
9 -85 25 -20 19 -20 24 -9 78 l12 58 27 -31 c14 -16 49 -42 78 -56 81 -40 147
-24 214 52 47 53 51 43 5 -13z m2390 -11 c7 -39 0 -168 -11 -196 -5 -13 -18
-18 -50 -18 l-43 0 15 31 c9 17 17 60 19 95 2 46 9 73 24 94 28 39 38 38 46
-6z m-96 -96 c0 -53 -16 -98 -36 -105 -16 -5 -112 74 -120 100 -15 43 -13 44
30 40 22 -3 57 0 76 5 19 6 38 11 43 11 4 1 7 -23 7 -51z m-212 15 c13 -16 33
-47 44 -70 20 -42 79 -103 99 -103 6 0 19 5 29 10 25 13 84 -7 59 -20 -35 -20
-94 -19 -138 3 -50 25 -151 129 -151 157 0 10 -4 22 -10 25 -19 12 -10 25 17
25 17 0 36 -10 51 -27z m-853 -235 c25 -12 45 -28 45 -36 0 -8 9 -12 23 -11
12 2 103 -39 207 -91 102 -52 194 -98 204 -103 43 -17 47 -27 26 -57 -11 -16
-20 -31 -20 -34 0 -3 23 -6 50 -6 51 0 60 6 38 28 -6 6 -9 14 -6 17 3 3 213
-99 468 -225 254 -127 459 -235 454 -240 -9 -8 -134 -47 -259 -79 -38 -10
-124 -35 -190 -55 -66 -20 -142 -43 -170 -51 -27 -8 -126 -37 -220 -65 -93
-28 -192 -57 -220 -65 -27 -8 -101 -30 -164 -50 -63 -19 -123 -35 -132 -35
-10 0 -20 -4 -23 -8 -3 -5 -31 -14 -63 -21 -57 -13 -85 -21 -322 -96 -63 -19
-127 -37 -142 -40 -15 -3 -40 -10 -54 -15 -55 -21 -55 -21 -55 120 0 111 2
130 15 130 9 0 27 12 42 26 19 19 24 32 20 53 -6 27 -5 28 71 45 96 20 171 56
216 102 l34 35 113 -21 c227 -42 467 -37 578 12 99 43 83 104 -43 162 -150 70
-280 91 -546 91 -197 0 -207 -1 -265 -26 -72 -30 -91 -58 -69 -100 7 -15 23
-31 35 -34 23 -7 18 -18 -9 -21 -9 0 -28 -4 -42 -8 -22 -6 -27 -1 -47 43 -13
29 -40 64 -63 82 l-40 32 0 140 c0 115 3 144 16 158 15 16 15 20 0 41 -9 12
-16 40 -16 62 l0 40 30 -29 c22 -21 27 -32 19 -41 -16 -20 26 -84 54 -84 29 0
76 68 56 81 -7 4 -10 12 -5 16 4 4 19 -5 32 -22 l25 -30 19 23 c10 12 20 28
23 35 4 9 7 9 18 -1 11 -10 16 -9 30 9 l16 22 19 -32 c10 -17 24 -31 30 -31
14 0 55 66 47 74 -4 3 -24 6 -45 6 -28 0 -38 4 -38 16 0 11 -8 15 -27 14 -62
-4 -65 -3 -47 25 15 24 18 24 34 10 16 -15 19 -14 39 18 23 38 27 57 10 57
-24 0 4 18 38 25 21 4 43 10 48 15 6 4 19 10 30 13 11 2 21 5 22 6 1 0 23 -9
48 -21z m-670 -258 c10 -11 25 -20 34 -20 8 0 30 -14 48 -32 l33 -32 0 -127 0
-127 -64 31 c-56 28 -62 34 -52 50 8 12 18 16 37 12 17 -4 32 0 43 10 21 22
20 42 -4 62 -11 10 -20 27 -20 38 0 27 -18 45 -47 45 -44 0 -52 -59 -12 -81
26 -14 14 -31 -17 -23 -29 7 -54 -10 -54 -38 0 -16 -4 -18 -22 -12 -92 29
-238 33 -292 8 -50 -25 -70 -79 -45 -126 34 -64 118 -127 239 -179 l65 -28
-40 -1 c-22 0 -56 5 -75 11 -52 16 -141 12 -162 -8 -18 -16 -25 -73 -9 -73 4
0 19 -20 31 -44 27 -50 87 -93 175 -126 33 -12 74 -28 91 -35 55 -23 182 -41
196 -27 31 31 38 14 38 -103 l0 -114 -277 138 c-153 76 -498 248 -768 381
-437 216 -487 243 -465 252 32 13 313 97 364 109 22 6 85 24 140 41 56 16 133
39 171 49 39 10 79 23 90 28 11 6 36 13 55 16 19 4 62 16 95 27 77 26 183 48
200 42 7 -3 15 -19 19 -35 3 -16 14 -32 23 -35 10 -3 25 -10 33 -15 8 -5 23
-12 33 -16 10 -3 16 -12 13 -20 -3 -7 4 -23 15 -34 18 -18 23 -19 42 -6 29 19
29 58 0 73 -26 13 -20 24 13 24 18 0 25 7 30 28 12 54 16 62 28 62 7 0 21 -9
31 -20z m-129 -270 c80 -22 183 -62 222 -86 20 -13 22 -22 22 -119 l0 -105
-43 0 c-117 0 -358 96 -426 170 -57 61 -61 68 -61 95 0 64 135 85 286 45z
m967 -85 c123 -16 263 -47 315 -70 84 -38 98 -46 109 -65 18 -27 8 -45 -35
-63 -73 -31 -151 -43 -257 -39 -248 9 -388 31 -461 70 -17 10 -62 23 -89 27
-81 12 -112 84 -50 114 79 39 283 50 468 26z m-367 -191 c40 -19 41 -24 12
-50 -38 -34 -70 -49 -143 -72 -114 -34 -136 -35 -168 -7 -39 34 -33 66 13 78
19 5 43 16 53 25 43 39 175 53 233 26z m-536 -117 c67 -34 160 -115 160 -138
0 -19 -45 -31 -94 -25 -28 4 -69 9 -91 12 -22 3 -67 19 -101 36 -178 90 -203
153 -71 177 48 8 83 -3 197 -62z"/>
<path d="M7325 6691 c-16 -4 -40 -13 -52 -19 -12 -7 -30 -12 -41 -12 -17 0
-98 -24 -276 -81 -33 -10 -70 -19 -83 -19 -12 0 -23 -4 -23 -8 0 -5 -30 -16
-67 -25 -56 -13 -358 -100 -413 -119 -8 -3 -51 -15 -95 -27 -44 -12 -123 -35
-175 -51 -52 -16 -111 -32 -130 -35 -19 -3 -38 -11 -42 -18 -4 -6 -10 -9 -13
-5 -3 3 -34 -3 -68 -14 -34 -10 -96 -29 -137 -42 -41 -12 -79 -24 -85 -25 -18
-6 -29 -9 -90 -27 -33 -10 -62 -18 -65 -19 -3 -1 -18 -5 -35 -9 -88 -23 -142
-41 -157 -54 -15 -13 -18 -33 -18 -128 0 -107 -1 -112 -20 -107 -14 4 -20 0
-20 -10 0 -9 9 -19 20 -22 19 -6 20 -15 20 -171 0 -148 -2 -165 -16 -162 -25
4 -28 -19 -5 -27 20 -6 21 -14 21 -175 0 -149 -2 -168 -16 -166 -25 2 -28 -21
-5 -29 20 -6 21 -14 21 -171 0 -148 -2 -165 -16 -162 -25 4 -28 -19 -5 -32 20
-10 21 -19 21 -174 0 -146 -2 -164 -16 -162 -25 2 -28 -21 -5 -29 12 -3 21
-13 21 -21 0 -8 8 -17 18 -21 9 -3 41 -16 70 -30 43 -19 51 -27 42 -38 -15
-18 4 -29 28 -16 15 8 77 -19 316 -138 164 -82 293 -152 287 -155 -23 -15 -10
-27 20 -21 26 6 72 -14 324 -140 208 -105 292 -152 291 -164 -1 -12 7 -15 30
-13 21 2 58 -11 120 -43 84 -44 91 -46 129 -35 22 6 47 12 55 14 8 2 24 7 35
12 11 5 41 9 67 8 37 0 48 3 51 18 3 10 14 18 25 18 10 0 72 16 137 36 65 20
123 37 129 38 12 3 103 29 183 52 39 12 57 13 72 4 21 -11 22 -10 25 12 1 13
126 57 163 57 12 1 24 5 27 9 3 5 31 14 63 21 32 8 108 29 168 48 86 27 114
32 128 23 19 -12 41 -4 32 11 -4 5 0 11 7 13 7 1 29 9 48 15 19 7 44 14 55 16
11 2 90 25 175 51 203 61 229 66 269 59 27 -5 33 -4 28 8 -4 11 13 21 66 38
l72 24 0 888 0 889 -35 12 c-19 7 -75 34 -125 59 -49 25 -110 55 -135 67 -25
11 -101 49 -170 84 -544 276 -1154 576 -1173 575 -12 -1 -35 -4 -52 -8z m45
-588 c0 -545 0 -555 -21 -584 -11 -16 -17 -34 -13 -40 4 -7 3 -9 -4 -5 -13 8
-51 -44 -45 -61 6 -18 -12 -16 -27 2 -18 21 -27 19 -43 -11 -18 -35 -120 -70
-138 -48 -16 20 -40 17 -46 -5 -5 -19 -22 -31 -54 -37 -8 -2 -28 -10 -44 -18
-25 -13 -32 -13 -71 7 -53 26 -65 47 -25 47 39 0 43 9 21 38 -11 13 -20 31
-20 38 0 23 -20 16 -32 -11 -9 -19 -14 -22 -25 -14 -10 9 -17 6 -31 -11 l-18
-22 -244 123 -245 124 80 6 c77 6 189 31 223 49 10 5 38 18 64 30 64 29 131
82 173 137 31 40 34 51 31 95 -6 94 -87 140 -246 141 -266 1 -540 -154 -540
-307 l0 -37 -31 23 c-36 27 -99 111 -99 134 0 116 -120 223 -219 194 -48 -13
-109 -49 -129 -75 -11 -14 -25 -25 -31 -25 -10 0 -191 88 -191 94 0 1 62 20
138 40 75 21 145 42 154 47 9 5 30 11 45 13 15 3 95 26 177 51 81 25 154 45
161 45 8 0 26 5 42 11 15 7 35 13 43 14 8 2 69 20 135 40 66 20 167 50 225 66
58 15 137 38 175 49 113 35 235 70 305 89 153 42 367 105 395 117 16 7 33 10
37 8 4 -3 8 -255 8 -561z m400 381 c96 -48 402 -201 680 -339 l505 -253 -75
-22 c-41 -12 -101 -30 -132 -41 -32 -10 -64 -19 -72 -19 -7 0 -24 21 -36 47
-31 65 -124 160 -192 194 -59 30 -115 37 -148 19 -34 -18 -60 -74 -60 -130 0
-52 0 -52 -27 -47 -16 2 -55 15 -88 27 -260 96 -482 -67 -425 -311 7 -30 17
-59 21 -65 6 -7 -17 -19 -73 -37 -78 -25 -83 -26 -101 -9 -18 16 -20 16 -40
-10 -28 -34 -74 -53 -93 -37 -11 9 -13 124 -14 615 l0 605 97 -50 c54 -27 177
-89 273 -137z m-2348 -489 l87 -45 -19 -43 c-28 -60 -27 -174 1 -221 22 -38
73 -80 114 -96 21 -8 25 -14 19 -28 -4 -9 -15 -55 -25 -102 -45 -205 -4 -379
88 -380 21 -1 36 -12 63 -45 42 -55 79 -70 123 -51 63 26 150 161 183 286 19
71 26 305 11 371 l-9 36 332 -166 c281 -141 330 -169 328 -186 -2 -11 -11 -21
-21 -23 -18 -4 -56 33 -57 56 0 19 -28 14 -35 -7 -9 -30 -33 -47 -47 -33 -15
15 -94 16 -103 2 -3 -5 -17 -10 -31 -10 -29 0 -30 -4 -3 -46 24 -39 27 -40 44
-18 10 15 15 14 58 -5 25 -12 50 -21 56 -21 5 0 17 -10 26 -22 15 -22 17 -22
29 -5 7 9 20 17 29 17 17 0 32 -16 20 -22 -16 -7 -54 -69 -48 -78 8 -12 82
-13 89 -1 3 4 -1 17 -9 27 -8 10 -15 23 -15 28 0 6 6 2 13 -8 12 -16 15 -15
39 22 27 40 27 52 1 52 -14 0 -43 23 -43 34 0 3 18 6 40 6 29 0 40 4 40 15 0
19 11 19 55 -2 37 -18 45 -37 20 -47 -8 -3 -15 -17 -15 -32 l0 -26 -19 23 -19
24 -11 -27 c-5 -14 -15 -29 -20 -33 -27 -16 -9 -33 44 -40 l55 -6 0 -39 c0
-21 -4 -42 -10 -45 -5 -3 -10 -24 -10 -45 0 -21 5 -42 10 -45 6 -3 10 -36 10
-73 l0 -67 -40 -13 c-22 -6 -47 -12 -55 -12 -8 0 -23 -4 -33 -9 -9 -5 -73 -25
-142 -44 -108 -30 -496 -142 -630 -181 -25 -8 -106 -31 -180 -51 -74 -21 -149
-44 -167 -51 -17 -8 -38 -14 -46 -14 -15 0 -65 -14 -197 -56 -41 -13 -81 -24
-88 -24 -9 0 -12 178 -12 851 l0 851 23 -6 c12 -3 61 -26 109 -51z m398 16
c41 -43 72 -129 42 -115 -38 16 -86 16 -117 0 -30 -16 -32 -16 -113 24 -48 23
-82 46 -80 52 3 7 24 27 49 45 39 28 52 32 113 32 68 1 70 0 106 -38z m847 27
c53 -9 68 -16 94 -46 28 -31 31 -40 26 -81 -3 -25 -10 -47 -16 -49 -6 -2 -11
-9 -11 -15 -1 -7 -12 -21 -26 -32 -14 -11 -38 -30 -52 -43 -57 -50 -209 -106
-317 -117 -111 -11 -169 -6 -235 21 -56 22 -69 39 -70 88 -1 164 342 318 607
274z m1789 -14 c50 -33 128 -117 161 -173 29 -50 20 -65 -34 -57 -22 3 -36 -1
-49 -15 -23 -26 -36 -24 -67 9 -14 15 -32 32 -40 39 -22 18 -122 63 -140 63
-14 0 -17 11 -17 55 0 46 4 60 25 80 34 35 107 35 161 -1z m-2832 -130 c39
-20 72 -37 74 -39 2 -1 -6 -18 -17 -36 -27 -46 -49 -127 -46 -167 2 -29 0 -32
-25 -32 -33 0 -86 48 -105 95 -27 68 -5 215 32 215 9 0 48 -16 87 -36z m2487
5 c35 -12 65 -22 67 -24 2 -1 -7 -21 -19 -44 -21 -41 -23 -96 -4 -157 6 -18 1
-22 -27 -28 -18 -3 -98 -26 -178 -51 -197 -60 -201 -60 -218 -10 -49 141 19
288 148 323 63 17 162 13 231 -9z m879 -889 c0 -467 -2 -850 -5 -850 -2 0
-360 178 -794 395 l-789 395 -1 210 c-1 116 2 210 6 210 5 0 13 10 18 22 14
32 65 43 82 18 17 -24 34 -18 56 19 9 16 29 31 44 34 16 4 39 10 53 13 23 7
24 6 11 -10 -12 -14 -11 -20 10 -42 l24 -25 22 27 c20 25 20 29 6 51 -14 21
-14 23 1 23 9 0 16 -4 16 -10 0 -5 32 -44 72 -86 60 -63 88 -83 167 -122 86
-42 103 -46 181 -50 58 -3 98 1 127 11 l43 15 11 -42 c46 -169 177 -353 292
-410 65 -31 139 -35 178 -8 79 52 105 125 96 271 -11 164 -74 318 -170 414
-28 28 -39 65 -48 162 -4 50 -10 99 -14 111 -6 19 -2 22 36 28 24 4 48 11 54
15 5 5 48 19 95 31 47 12 87 23 89 26 2 2 10 4 18 4 11 0 13 -148 13 -850z
m-749 823 c8 -10 28 -42 43 -72 23 -43 26 -55 15 -62 -22 -13 -109 -32 -117
-25 -3 4 -7 37 -8 74 -2 67 12 102 41 102 7 0 18 -8 26 -17z m-2405 -46 c16
-9 20 -17 14 -32 -12 -32 -107 -125 -127 -125 -11 0 -24 -5 -31 -12 -23 -23
-23 1 1 49 29 56 93 133 110 133 7 -1 22 -6 33 -13z m128 -125 c29 -115 15
-293 -30 -373 -25 -44 -34 -53 -73 -74 l-33 -17 20 39 c65 125 96 261 89 406
-2 54 -1 94 4 90 4 -4 14 -36 23 -71z m-60 42 c11 -41 8 -187 -3 -218 -6 -15
-13 -42 -15 -59 -9 -70 -56 -194 -79 -209 -15 -9 -45 12 -67 47 -43 70 9 302
93 411 23 29 47 54 53 54 7 0 15 -12 18 -26z m128 -52 c9 -25 13 -85 12 -177
-2 -170 -27 -275 -89 -372 -66 -102 -130 -122 -181 -57 -16 20 -29 39 -29 43
0 4 15 25 34 46 24 28 41 38 61 37 39 -1 96 56 132 134 l30 65 -4 169 c-3 132
-1 167 9 159 6 -6 18 -27 25 -47z m2340 -14 c38 -41 38 -42 19 -62 -10 -12
-26 -36 -35 -54 -15 -29 -19 -32 -34 -21 -36 27 -81 74 -82 85 0 5 -9 20 -19
31 -20 21 -20 21 27 33 26 6 54 15 62 20 22 13 20 14 62 -32z m-157 -63 c16
-22 35 -44 42 -48 7 -4 13 -14 13 -20 0 -7 14 -21 30 -30 30 -18 30 -19 30
-105 0 -86 0 -88 -27 -98 -39 -15 -138 -17 -203 -5 -87 17 -176 68 -258 148
-41 40 -72 78 -70 84 2 7 58 27 124 45 65 18 155 43 199 57 44 14 82 22 86 18
3 -3 18 -24 34 -46z m481 -83 c3 -15 12 -52 20 -82 25 -104 38 -279 25 -342
-9 -43 -17 -58 -29 -58 -27 1 -81 91 -108 181 -13 46 -32 107 -41 136 l-16 51
37 38 c25 26 36 46 36 67 0 60 63 68 76 9z m-3046 -97 c7 -33 19 -69 26 -80 8
-11 14 -42 14 -70 1 -27 5 -69 9 -92 8 -40 7 -43 -13 -43 -39 0 -68 48 -80
133 -8 52 12 234 24 220 4 -4 13 -35 20 -68z m3169 -70 c22 -44 45 -100 51
-125 6 -25 15 -59 19 -75 4 -17 7 -64 6 -106 -3 -155 -83 -238 -200 -206 -18
4 -109 64 -136 89 -32 28 -99 121 -99 137 0 6 -4 11 -8 11 -13 0 -38 58 -62
144 l-21 77 31 32 c17 18 39 44 48 60 10 16 22 25 30 22 8 -3 23 -5 33 -5 11
0 18 -4 15 -9 -4 -5 -2 -21 4 -36 5 -14 12 -40 15 -58 12 -71 74 -225 99 -246
9 -8 16 -19 16 -25 0 -6 14 -17 32 -25 30 -13 33 -13 54 12 42 50 42 271 -2
442 -10 38 34 -26 75 -110z m-1455 49 c3 -9 6 -90 6 -181 0 -156 -1 -165 -20
-170 -23 -6 -33 -32 -25 -65 5 -21 1 -24 -60 -39 l-65 -16 0 61 c0 35 -5 67
-12 74 -7 7 -37 12 -67 12 -30 0 -83 5 -118 11 -49 9 -67 8 -78 -1 -13 -11
-15 -7 -15 24 0 20 4 36 9 36 16 0 27 51 22 108 -1 6 -8 12 -17 12 -9 0 -14 5
-12 12 4 12 108 48 121 41 12 -7 8 -38 -8 -59 -23 -30 -18 -34 35 -34 l51 0
-23 39 c-22 38 -22 40 -5 59 10 11 38 25 61 31 24 6 50 13 57 16 8 2 23 -2 33
-10 19 -14 19 -15 1 -35 -17 -18 -17 -21 -1 -45 9 -14 22 -25 29 -25 6 0 27
23 45 50 32 50 32 51 15 77 -10 15 -13 24 -6 20 6 -4 14 -3 18 3 9 15 22 12
29 -6z m651 -759 c341 -170 622 -312 625 -315 3 -3 74 -39 159 -81 l154 -75
-69 -22 c-38 -12 -109 -32 -159 -46 -145 -40 -378 -108 -400 -117 -19 -7 -184
-56 -340 -100 -38 -11 -77 -23 -85 -26 -8 -3 -18 -6 -22 -5 -4 1 -40 -9 -80
-22 -176 -57 -212 -67 -275 -82 -37 -8 -72 -18 -78 -22 -5 -4 -14 -7 -20 -8
-5 -1 -57 -16 -115 -34 -58 -17 -143 -43 -190 -56 -47 -14 -108 -31 -136 -39
-28 -8 -56 -15 -62 -15 -9 0 -12 33 -12 110 l0 111 78 -7 c42 -3 100 -14 127
-24 96 -35 224 -42 278 -17 50 24 71 51 63 82 -9 37 -89 120 -138 143 l-41 19
84 7 c82 7 223 36 264 55 11 5 48 22 83 37 74 32 142 101 142 144 0 56 -64
104 -171 130 -50 12 -304 9 -354 -4 -63 -16 -179 -58 -222 -80 -90 -45 -148
-137 -111 -174 17 -17 9 -19 -39 -14 l-43 4 0 354 c0 379 0 381 48 355 16 -9
25 -6 47 17 l28 27 -8 -25 c-4 -14 -14 -30 -22 -35 -10 -7 -13 -25 -11 -50 3
-40 3 -40 42 -37 25 3 47 12 62 29 16 17 29 23 43 18 10 -3 22 -1 26 5 4 7 11
7 18 2 7 -5 27 -12 45 -15 25 -5 37 -2 52 13 22 22 24 29 12 47 -11 17 -100
44 -104 31 -2 -5 -11 -6 -21 -3 -21 9 -23 45 -2 45 8 0 23 5 33 11 19 12 184
68 192 66 3 -1 284 -141 625 -312z m-1183 110 c13 -28 19 -30 36 -13 9 9 12
-62 12 -319 0 -212 -4 -334 -10 -338 -6 -3 -17 1 -26 9 -21 21 -219 117 -334
161 -234 90 -507 122 -518 61 -7 -36 9 -65 61 -104 50 -38 212 -121 267 -137
14 -4 30 -11 35 -15 6 -4 27 -13 48 -19 37 -13 46 -24 27 -36 -5 -3 -10 -19
-10 -35 0 -40 36 -66 165 -120 39 -17 157 -41 226 -47 l69 -6 0 -107 0 -107
-764 381 c-420 210 -761 384 -757 387 6 7 140 48 256 80 39 10 79 23 90 28 11
6 36 13 55 16 19 4 53 13 75 20 42 14 161 50 280 84 39 11 122 36 185 55 95
29 243 71 285 81 6 1 15 4 20 6 209 68 211 68 227 34z m913 -435 c58 -27 74
-45 73 -82 -2 -50 -80 -112 -178 -141 -30 -9 -80 -24 -110 -33 -32 -9 -111
-18 -190 -21 -121 -5 -143 -3 -210 17 -90 27 -110 43 -110 85 0 58 61 110 183
155 104 39 174 49 337 46 139 -2 160 -5 205 -26z m-1530 -10 c33 -5 85 -17
115 -26 30 -9 78 -23 105 -31 28 -8 59 -18 70 -23 11 -4 40 -16 65 -25 74 -28
228 -107 246 -126 15 -17 9 -18 -138 -16 -103 1 -160 -2 -174 -10 -16 -9 -32
-7 -85 11 -35 13 -73 27 -84 31 -182 65 -336 172 -310 215 8 13 112 13 190 0z
m840 -264 c28 -8 77 -22 110 -31 59 -17 142 -57 197 -97 32 -22 58 -67 58 -98
0 -44 -117 -64 -232 -38 -50 11 -51 12 -23 18 53 12 135 70 135 96 0 18 -51
71 -77 78 -52 16 -72 18 -144 17 -43 -2 -85 2 -95 7 -11 5 -31 15 -46 23 -75
34 15 54 117 25z m-483 -60 c52 -13 128 -29 169 -36 82 -13 120 -33 101 -52
-12 -12 0 -44 22 -61 14 -11 -131 0 -192 14 -151 35 -245 96 -221 141 12 22 8
23 121 -6z m667 -60 c43 -39 14 -70 -85 -91 -97 -21 -102 -20 -71 13 31 32 34
56 11 79 -23 23 -4 30 65 23 38 -4 67 -12 80 -24z"/>
<path d="M6450 5167 c0 -7 7 -23 16 -35 15 -22 15 -22 -35 -22 -55 0 -57 -2
-36 -40 9 -17 10 -29 3 -37 -7 -9 -4 -23 12 -48 12 -19 24 -35 27 -35 3 0 14
11 25 25 11 14 25 25 32 25 12 0 46 50 46 69 0 6 -13 11 -30 11 -16 0 -30 5
-30 10 0 6 6 10 13 10 13 0 47 50 47 69 0 6 -19 11 -45 11 -30 0 -45 -4 -45
-13z"/>
<path d="M422 6599 c-17 -35 -44 -95 -61 -132 -17 -37 -38 -70 -46 -73 -8 -4
-15 -10 -15 -15 0 -12 87 -11 95 1 3 6 -1 10 -10 10 -12 0 -15 7 -13 28 3 25
7 27 51 30 43 3 48 1 57 -23 13 -34 13 -35 -5 -35 -8 0 -15 -4 -15 -10 0 -11
122 -14 133 -4 3 4 -2 14 -13 23 -10 9 -42 70 -70 136 -29 66 -54 122 -56 124
-1 1 -16 -26 -32 -60z"/>
<path d="M4880 6641 c-53 -28 -80 -74 -80 -138 0 -46 4 -58 33 -89 52 -57 134
-65 203 -19 25 16 32 35 13 35 -6 0 -22 -9 -36 -20 -32 -25 -74 -26 -104 -1
-20 16 -24 30 -27 94 -4 70 -2 78 21 101 34 34 80 34 112 1 14 -13 25 -29 25
-35 0 -5 5 -10 10 -10 6 0 10 23 10 51 0 42 -3 49 -13 40 -9 -7 -24 -8 -48 -1
-50 15 -80 12 -119 -9z"/>
<path d="M610 6641 c0 -6 9 -16 21 -24 45 -32 44 -244 -2 -293 -30 -32 -17
-41 20 -15 39 28 81 114 81 165 0 48 -27 110 -64 149 -26 27 -56 36 -56 18z"/>
<path d="M5080 6644 c0 -3 9 -13 20 -22 50 -41 49 -245 -1 -298 -33 -35 -15
-41 27 -9 65 50 93 160 60 238 -17 41 -69 97 -90 97 -9 0 -16 -3 -16 -6z"/>
<path d="M230 5829 c-53 -11 -70 -40 -70 -115 0 -36 4 -64 10 -64 6 0 10 7 10
15 0 12 13 15 65 14 48 -1 65 -5 65 -15 0 -8 5 -14 10 -14 15 0 12 123 -2 141
-32 37 -53 46 -88 38z"/>
<path d="M4793 5650 c-34 -14 -55 -54 -58 -115 -4 -53 9 -83 21 -51 8 22 130
21 138 -1 12 -30 26 0 26 54 0 49 -4 59 -34 89 -35 35 -54 40 -93 24z"/>
<path d="M4521 4044 c-25 -32 -26 -55 -6 -94 28 -54 85 -29 85 38 0 35 1 36
18 18 12 -13 14 -20 5 -23 -18 -7 -16 -50 3 -61 44 -25 92 21 59 57 -14 17
-14 19 0 24 18 7 20 38 3 55 -19 19 -55 14 -72 -10 l-16 -22 -16 22 c-20 29
-38 28 -63 -4z"/>
<path d="M4310 3952 c-8 -2 -27 -15 -41 -28 l-26 -24 -11 25 c-23 50 -92 18
-92 -43 0 -26 25 -68 46 -76 8 -3 25 7 39 22 14 15 25 21 25 15 0 -7 11 -20
25 -29 24 -16 27 -16 46 2 26 23 21 65 -9 80 l-23 11 27 20 c27 20 23 35 -6
25z"/>
<path d="M3802 3837 c-18 -21 -17 -82 1 -111 21 -31 42 -33 59 -6 16 26 77 29
74 4 0 -9 5 -19 12 -21 7 -3 12 4 12 15 0 11 6 23 13 26 10 5 10 7 0 12 -8 3
-13 24 -13 50 0 57 -17 57 -49 1 l-25 -42 -6 31 c-4 17 -10 36 -14 42 -10 16
-51 15 -64 -1z"/>
<path d="M5510 3690 c0 -5 5 -10 10 -10 6 0 10 -30 10 -70 0 -40 -4 -70 -10
-70 -5 0 -10 -4 -10 -10 0 -6 28 -10 64 -10 59 0 66 2 90 31 36 42 34 83 -5
120 -27 25 -39 29 -90 29 -33 0 -59 -4 -59 -10z"/>
<path d="M725 3650 c-3 -5 1 -10 9 -10 13 0 16 -13 16 -70 0 -57 -3 -70 -16
-70 -8 0 -12 -4 -9 -10 3 -5 32 -10 65 -10 54 0 60 2 89 35 17 20 31 43 31 52
0 25 -42 81 -65 87 -34 9 -113 7 -120 -4z"/>
<path d="M2932 3627 c-12 -13 -22 -35 -22 -50 0 -15 -9 -36 -20 -47 -23 -23
-17 -49 6 -29 10 8 18 9 25 2 12 -12 -1 -41 -35 -80 -17 -20 -17 -23 -3 -28 8
-4 28 -5 43 -3 33 4 45 28 14 28 -22 0 -22 1 -5 28 10 15 28 38 41 53 33 35
33 97 1 127 l-23 22 -22 -23z"/>
<path d="M8720 3630 c0 -5 5 -10 10 -10 6 0 10 -28 10 -64 0 -36 -4 -68 -10
-71 -5 -3 -10 -11 -10 -17 0 -7 23 -9 65 -6 76 5 102 24 112 81 5 31 1 40 -25
67 -27 27 -37 30 -91 30 -34 0 -61 -4 -61 -10z"/>
<path d="M3977 3608 c-8 -5 -6 -9 6 -14 24 -9 25 -129 1 -138 -30 -12 -2 -26
53 -26 49 0 59 4 89 34 42 42 44 75 6 117 -25 28 -34 32 -86 33 -32 0 -63 -2
-69 -6z"/>
<path d="M7130 3302 c-16 -6 -12 -22 5 -22 22 0 22 -125 -1 -134 -30 -12 -2
-26 52 -26 63 0 98 18 112 59 25 71 -17 121 -102 124 -31 1 -61 1 -66 -1z"/>
<path d="M2470 3250 c0 -5 5 -10 10 -10 6 0 10 -30 10 -70 0 -40 -4 -70 -10
-70 -5 0 -10 -4 -10 -10 0 -6 28 -10 64 -10 53 0 67 4 90 25 37 34 37 94 -1
130 -24 21 -37 25 -90 25 -35 0 -63 -4 -63 -10z"/>
<path d="M4980 3140 c0 -5 9 -15 20 -23 27 -19 40 -67 40 -151 0 -82 -16 -143
-42 -157 -10 -6 -16 -14 -13 -20 9 -14 62 27 91 71 19 29 25 51 25 96 1 71
-10 100 -50 147 -30 33 -71 55 -71 37z"/>
<path d="M230 3130 c0 -5 7 -10 15 -10 13 0 15 -20 15 -120 0 -114 -1 -120
-21 -120 -11 0 -17 -4 -14 -10 3 -5 45 -10 93 -10 69 0 94 4 119 20 54 32 57
96 6 119 -26 12 -27 13 -8 23 42 23 47 63 12 96 -21 19 -34 22 -120 22 -58 0
-97 -4 -97 -10z"/>
<path d="M500 3131 c0 -5 6 -11 14 -14 21 -8 46 -94 46 -156 -1 -62 -19 -122
-46 -152 -28 -31 -8 -34 31 -5 19 15 42 44 51 64 20 45 22 148 5 182 -29 55
-101 113 -101 81z"/>
<path d="M4703 3126 c14 -11 17 -30 17 -130 0 -96 -3 -116 -15 -116 -8 0 -15
-4 -15 -10 0 -16 153 -12 193 5 101 42 114 188 22 245 -27 16 -49 20 -126 20
-80 -1 -91 -3 -76 -14z m153 -29 c51 -45 39 -184 -18 -206 -13 -5 -26 -7 -30
-4 -5 2 -8 56 -8 119 0 126 5 134 56 91z"/>
<path d="M5522 2978 c-9 -9 -12 -319 -12 -1335 l0 -1323 1696 2 1696 3 0 790
c-1 435 -1 1034 -1 1333 l-1 542 -1683 0 c-1296 0 -1686 -3 -1695 -12z m418
-26 c0 -4 -11 -41 -25 -82 -37 -110 -58 -307 -51 -467 7 -167 38 -383 66 -458
14 -40 32 -90 37 -106 4 -13 -6 -17 -49 -22 -126 -13 -231 -97 -291 -232 -28
-65 -31 -79 -30 -180 0 -89 4 -120 21 -163 26 -62 28 -95 7 -112 -24 -20 -18
-30 18 -30 26 -1 38 -9 65 -44 18 -25 44 -55 58 -69 15 -15 22 -31 18 -41 -5
-12 0 -16 19 -16 14 0 28 -4 31 -9 3 -5 41 -26 85 -46 74 -35 79 -39 85 -74 6
-39 55 -97 117 -140 29 -20 41 -39 63 -104 33 -95 63 -145 107 -180 l32 -25
-42 -4 c-31 -3 -45 1 -52 12 -9 13 -11 13 -20 0 -9 -13 -57 -15 -340 -12
l-329 3 0 44 c0 33 4 45 15 45 8 0 15 5 15 10 0 6 -7 13 -15 16 -13 5 -15 35
-15 185 0 159 2 179 18 189 16 10 16 10 0 20 -16 10 -18 30 -18 194 0 154 2
185 15 190 8 3 15 10 15 16 0 5 -7 10 -15 10 -13 0 -15 27 -15 185 0 158 2
185 15 185 8 0 15 7 15 15 0 8 -7 15 -15 15 -13 0 -15 27 -15 185 0 165 2 185
18 194 16 10 16 12 0 25 -16 12 -18 33 -18 186 0 153 2 174 18 186 16 13 16
15 0 25 -16 9 -18 29 -18 194 0 158 2 185 15 185 8 0 15 7 15 15 0 8 -7 15
-15 15 -11 0 -15 11 -15 40 l0 40 200 0 c110 0 200 -4 200 -8z m269 -9 c9 -17
11 -17 23 0 11 15 25 18 83 15 l70 -3 30 -60 c81 -164 128 -337 155 -570 17
-154 21 -145 -55 -145 -36 0 -65 -4 -65 -10 0 -13 53 -100 61 -100 4 0 18 18
33 40 14 22 29 40 33 40 3 0 3 -55 0 -122 -7 -130 -34 -285 -63 -359 -24 -59
-67 -132 -81 -136 -6 -2 -23 16 -38 41 -14 24 -32 50 -40 56 -13 11 -12 16 5
40 24 34 18 40 -38 40 -26 0 -55 7 -70 18 -49 33 -135 70 -206 86 l-49 12 -23
72 c-52 158 -84 382 -84 577 0 152 7 173 39 121 24 -38 36 -45 44 -23 2 6 18
-12 36 -40 18 -29 38 -53 44 -53 7 0 21 19 33 42 12 23 26 44 32 46 6 2 22
-15 37 -37 14 -23 30 -41 35 -41 5 0 19 18 30 39 11 22 24 43 30 46 6 4 8 11
4 17 -4 6 -51 7 -135 3 -79 -5 -129 -4 -129 2 0 5 7 18 15 29 27 35 19 44 -39
44 -30 0 -57 4 -60 9 -3 5 0 35 7 68 l14 58 29 -48 c16 -26 33 -46 39 -44 13
5 64 79 65 95 0 8 -18 12 -59 12 -33 0 -62 3 -64 8 -3 4 4 35 15 70 l20 62
113 0 c98 0 115 -2 124 -17z m721 0 c10 -17 10 -17 20 0 10 16 38 17 347 17
308 0 337 -1 349 -17 12 -17 13 -17 19 0 6 14 20 17 76 17 l69 0 0 -459 0
-458 -45 -1 c-25 -1 -54 -6 -64 -12 -11 -5 -28 -10 -38 -10 -26 0 -233 -83
-291 -117 -87 -51 -147 -95 -194 -147 -27 -28 -48 -54 -48 -58 0 -5 -7 -8 -15
-8 -8 0 -15 5 -15 10 0 19 -23 10 -46 -17 -28 -33 -30 -50 -8 -74 14 -15 14
-25 4 -75 -28 -133 29 -255 172 -366 12 -10 25 -18 30 -18 4 0 42 -16 84 -36
143 -68 251 -87 459 -80 142 5 189 11 335 45 48 11 170 59 187 73 8 6 35 21
61 33 71 33 120 69 195 142 72 70 128 169 142 251 4 25 12 42 20 42 8 0 26 15
40 34 l26 35 -22 30 c-29 39 -43 44 -64 21 -17 -18 -18 -17 -41 28 -13 26 -24
48 -24 50 0 1 52 2 115 2 l115 0 0 -75 c0 -60 -3 -75 -15 -75 -8 0 -15 -7 -15
-15 0 -8 7 -15 15 -15 13 0 15 -27 15 -185 0 -158 -2 -185 -15 -185 -8 0 -15
-7 -15 -15 0 -8 7 -15 15 -15 13 0 15 -27 15 -181 0 -161 -2 -183 -17 -195
-17 -13 -17 -15 0 -25 15 -9 17 -29 17 -188 0 -150 -2 -180 -15 -185 -8 -3
-15 -10 -15 -16 0 -5 7 -10 15 -10 11 0 15 -12 15 -45 l0 -45 -250 0 c-160 0
-250 4 -250 10 0 6 -7 10 -15 10 -8 0 -15 -4 -15 -10 0 -6 -119 -10 -336 -10
-309 0 -338 1 -350 18 -12 16 -13 16 -19 0 -7 -17 -32 -18 -344 -18 -256 0
-340 3 -350 13 -10 10 -15 9 -24 -3 -10 -12 -35 -14 -133 -12 l-122 3 59 56
c59 56 109 128 109 157 0 10 9 16 22 16 25 0 68 37 68 58 0 9 -7 23 -15 32
-14 15 -14 21 0 59 39 112 45 426 10 521 -10 25 -19 61 -22 80 -8 54 -110 166
-183 202 -63 31 -160 31 -218 1 -54 -29 -61 -29 -35 0 42 46 94 178 111 282 7
39 17 95 22 125 9 54 7 366 -3 405 -3 11 -11 56 -17 100 -15 106 -48 244 -66
277 -8 14 -14 31 -14 38 0 6 -9 30 -21 53 -11 23 -31 66 -44 95 l-24 52 254 0
c231 0 255 -2 265 -17z m1945 -538 l0 -550 -142 -2 -143 -2 18 24 c9 14 23 25
31 25 9 0 12 8 9 25 -3 14 -2 25 2 25 4 0 11 -11 14 -25 7 -27 34 -33 54 -13
18 18 15 27 -8 21 -11 -3 -20 0 -20 6 0 6 9 11 20 11 23 0 26 10 8 28 -18 18
-48 15 -56 -5 -5 -14 -8 -9 -12 17 -5 38 -35 50 -35 15 0 -17 -6 -20 -38 -17
l-37 4 -1 -44 -2 -43 -6 40 -6 40 -56 2 -56 1 1 -44 1 -44 50 0 c42 -1 53 -5
68 -25 l18 -25 -353 2 -353 3 -3 553 -2 552 517 -2 518 -3 0 -550z m-1063
-482 l3 -98 74 -3 c56 -2 78 -7 87 -20 14 -20 1 -52 -21 -52 -8 0 -26 -16 -41
-36 -26 -34 -27 -37 -11 -62 29 -49 43 -50 81 -9 18 20 38 37 43 37 5 0 19 14
32 31 18 24 20 33 11 45 -10 11 -9 19 4 39 l16 25 263 0 263 0 19 -32 c35 -57
43 -91 44 -174 1 -71 -3 -88 -30 -145 -48 -98 -162 -200 -304 -273 -97 -49
-137 -66 -156 -66 -11 0 -29 -5 -40 -11 -11 -5 -52 -17 -92 -25 -40 -8 -83
-17 -97 -20 -38 -9 -339 -10 -385 -2 -123 22 -159 33 -251 79 -56 27 -122 69
-147 92 -111 103 -140 265 -62 352 18 21 31 44 28 51 -2 7 -1 19 4 27 18 33
96 117 107 117 7 0 25 13 40 29 16 16 42 35 60 42 17 7 38 17 46 24 35 27 163
77 256 99 98 25 132 33 146 35 4 0 9 -43 10 -96z m-1813 -170 c19 -40 20 -48
8 -55 -8 -4 -27 -29 -42 -55 -25 -41 -29 -44 -40 -30 -7 9 -16 17 -21 17 -16
0 -66 -89 -62 -112 3 -20 9 -23 53 -23 28 -1 56 -5 64 -9 15 -9 119 -12 127
-3 3 3 -6 23 -20 46 -32 50 -32 61 -3 61 14 0 41 -20 75 -55 78 -83 156 -110
227 -80 19 9 19 8 4 -15 -13 -20 -26 -26 -63 -28 -48 -3 -59 -18 -31 -42 21
-17 19 -24 -12 -59 -16 -16 -39 -51 -53 -76 -20 -37 -22 -47 -12 -54 12 -7 12
-12 1 -30 -11 -17 -24 -21 -61 -21 -42 0 -48 -3 -48 -21 0 -12 -12 -35 -27
-53 -31 -37 -85 -154 -77 -167 11 -18 -32 -8 -71 16 -33 20 -36 24 -17 25 22
0 22 0 4 33 -47 85 -61 94 -80 52 -6 -14 -16 -25 -21 -25 -12 0 -81 83 -81 99
0 6 7 11 15 11 17 0 20 16 5 25 -6 4 -19 24 -31 46 -12 25 -26 39 -36 37 -23
-4 -43 61 -50 162 -13 204 84 363 250 411 94 27 100 26 126 -28z m91 23 c102
-32 153 -69 189 -137 10 -19 27 -34 37 -35 11 -1 24 -2 30 -3 6 0 21 -24 34
-52 28 -58 24 -64 -48 -75 -96 -14 -196 61 -271 206 -59 113 -56 122 29 96z
m625 -275 c28 -12 62 -36 77 -55 l26 -33 -24 -28 c-30 -35 -30 -56 0 -84 17
-16 33 -22 57 -19 33 3 34 1 48 -47 23 -79 21 -370 -3 -462 -15 -61 -22 -73
-38 -73 -38 0 -76 -68 -48 -85 19 -12 10 -42 -29 -102 -46 -72 -86 -113 -137
-145 -36 -21 -48 -23 -166 -20 l-127 3 -40 41 c-23 22 -41 44 -41 48 0 5 -8
16 -17 26 -10 9 -23 33 -30 53 -15 43 -15 41 -5 40 4 -1 28 -1 55 0 38 1 47 4
47 19 0 16 14 20 101 30 55 6 107 16 115 23 11 9 18 8 32 -5 42 -38 119 1 108
54 -3 20 3 33 28 58 34 33 76 129 76 174 0 53 -33 122 -82 170 -27 26 -53 48
-57 48 -5 0 -34 12 -66 26 -41 19 -54 29 -46 37 6 6 11 26 11 44 0 36 18 44
40 18 18 -22 48 -18 75 10 31 30 31 52 3 82 -23 25 -57 30 -76 11 -9 -9 -16
-7 -33 8 -11 10 -31 18 -44 16 -16 -2 -25 4 -33 25 -24 63 -24 68 11 86 78 42
148 45 232 8z m-262 -160 c-2 -40 -7 -59 -24 -77 -14 -15 -20 -31 -17 -48 5
-23 2 -24 -44 -28 -35 -2 -47 0 -43 9 2 7 -5 29 -16 48 -23 39 -19 76 6 55 11
-9 21 -1 52 46 27 41 34 59 25 62 -10 3 -7 11 10 29 l23 25 14 -34 c8 -18 14
-57 14 -87z m-7 -187 c19 -5 20 -9 11 -50 -6 -24 -14 -44 -19 -44 -4 0 -8 -6
-8 -14 0 -8 -7 -16 -15 -20 -8 -3 -15 -14 -15 -25 0 -11 -19 -39 -42 -62 l-43
-43 -5 34 c-5 35 -5 35 -55 34 l-50 0 -3 -57 c-2 -31 -7 -57 -12 -57 -13 0
-12 90 1 155 6 28 13 64 16 81 4 27 11 34 46 43 94 26 159 34 193 25z m76
-279 c3 -27 6 -30 36 -29 28 2 32 -1 32 -24 0 -27 35 -72 55 -72 7 0 25 10 41
22 l29 22 -29 -32 c-22 -23 -39 -32 -62 -32 -25 0 -39 -8 -61 -35 -24 -29 -40
-37 -102 -50 -83 -17 -141 -19 -141 -5 0 6 26 10 58 10 66 0 102 23 102 65 0
42 -66 85 -85 55 -7 -12 -45 -14 -45 -2 0 19 27 32 68 32 44 0 44 0 40 31 -3
21 0 33 9 36 8 3 19 17 24 31 12 30 26 19 31 -23z"/>
<path d="M6170 2389 c0 -5 7 -23 15 -39 l16 -30 -32 0 c-24 0 -30 -4 -25 -15
3 -8 9 -22 12 -30 5 -12 -4 -15 -45 -15 -28 0 -51 -4 -51 -10 0 -5 11 -29 25
-54 30 -55 32 -69 5 -61 -13 4 -20 2 -20 -6 0 -11 58 -109 65 -109 2 0 13 16
25 35 21 33 23 35 36 18 16 -21 12 -26 81 91 l46 78 18 -23 c10 -13 21 -32 25
-41 3 -10 9 -18 14 -18 11 0 73 101 66 107 -5 5 -121 7 -141 3 -30 -7 -47 1
-40 18 4 9 8 24 8 32 0 8 6 24 13 35 26 36 18 43 -51 44 -38 0 -65 -4 -65 -10z"/>
<path d="M8608 2888 c-3 -8 -20 -11 -46 -9 -35 2 -42 -1 -42 -16 -1 -17 -1
-17 -11 0 -15 25 -53 21 -69 -8 -11 -20 -10 -28 4 -50 19 -29 38 -32 57 -9 11
13 14 13 20 1 6 -10 28 -14 86 -13 l78 2 -3 32 c-2 24 1 32 12 32 9 0 16 -8
16 -18 0 -29 37 -58 57 -46 28 18 39 42 27 61 -19 30 -42 39 -64 25 -12 -7
-20 -8 -20 -2 0 5 -16 10 -35 10 -19 0 -35 5 -35 10 0 14 -28 12 -32 -2z"/>
<path d="M8343 2673 c-44 -30 -20 -113 32 -113 10 0 26 7 35 15 15 14 18 14
30 0 16 -19 47 -19 58 1 8 14 10 14 21 0 18 -22 48 -20 61 3 24 46 3 111 -36
111 -8 0 -21 -13 -27 -29 -10 -23 -16 -28 -27 -20 -11 8 -12 12 -2 16 15 6 16
33 1 33 -16 0 -69 -56 -69 -73 0 -24 -46 -40 -67 -24 -18 13 -16 42 3 62 15
14 19 14 40 1 16 -11 25 -12 30 -5 17 28 -51 46 -83 22z"/>
<path d="M8315 2405 l0 -65 41 0 c22 0 45 5 51 11 8 8 17 7 32 -3 27 -17 53
-1 63 38 6 23 6 21 3 -9 -4 -34 -2 -38 18 -37 42 4 57 0 57 -14 0 -30 59 -35
85 -6 14 15 15 23 6 33 -6 8 -8 27 -5 44 5 26 3 31 -19 37 -38 9 -60 -3 -54
-30 2 -12 0 -29 -4 -36 -6 -8 -9 1 -9 25 0 22 -5 38 -12 38 -36 5 -54 3 -65
-4 -6 -5 -20 -3 -31 4 -16 10 -23 10 -36 0 -9 -8 -16 -19 -16 -25 -1 -16 -48
-48 -60 -41 -13 8 -13 75 0 75 6 0 10 7 10 15 0 10 -10 15 -28 15 -27 0 -27
-1 -27 -65z"/>
<path d="M7641 1761 c-12 -16 -21 -33 -20 -38 0 -13 105 -157 116 -160 6 -2
23 11 37 30 24 31 25 37 13 60 -23 45 -99 137 -113 137 -7 0 -22 -13 -33 -29z"/>
<path d="M7916 1435 l-27 -35 27 -35 c31 -41 39 -43 65 -12 l20 22 15 -22 c22
-31 38 -29 63 6 27 37 26 49 -4 86 l-25 30 -24 -27 -25 -28 -19 25 c-26 33
-35 32 -66 -10z"/>
<path d="M5868 1414 c-34 -56 -36 -76 -5 -74 12 1 35 2 50 1 l29 -1 -21 -36
c-26 -43 -26 -54 -2 -54 11 0 21 -9 24 -21 5 -18 12 -21 46 -17 45 4 49 -1 25
-37 -14 -21 -14 -26 -2 -30 11 -5 113 -1 126 4 5 2 -52 88 -79 116 -74 79 -93
103 -121 148 -16 26 -33 47 -36 47 -4 0 -19 -21 -34 -46z"/>
<path d="M3228 2955 c-2 -3 -537 -5 -1187 -5 -775 0 -1190 -4 -1202 -11 -18
-9 -19 -47 -19 -1334 l0 -1325 23 -5 c12 -3 789 -4 1727 -3 l1705 3 3 758 c1
493 6 757 12 757 7 0 10 202 10 579 0 525 -2 579 -16 585 -19 7 -1049 8 -1056
1z m-2193 -51 c17 -17 32 -18 37 -1 4 9 103 13 441 14 383 3 437 1 437 -12 0
-8 7 -15 15 -15 8 0 15 5 15 10 0 6 7 10 15 10 12 0 8 -12 -16 -47 -41 -59
-92 -154 -93 -173 -1 -8 -13 -44 -28 -80 -14 -36 -32 -87 -39 -113 l-12 -48
-27 32 -26 32 -27 -35 c-15 -19 -27 -39 -27 -43 0 -4 12 -23 26 -42 l26 -34
23 21 23 21 0 -138 c1 -149 12 -224 41 -288 11 -22 25 -58 33 -79 14 -42 130
-166 154 -166 8 0 29 -7 47 -17 18 -9 51 -15 74 -14 40 1 43 -1 43 -24 0 -14
-4 -25 -10 -25 -5 0 -10 -6 -10 -13 0 -8 -25 -18 -62 -26 -35 -8 -75 -20 -90
-27 -15 -8 -34 -14 -43 -14 -9 0 -28 -8 -43 -18 -22 -15 -41 -18 -99 -14 l-72
4 -6 41 c-4 23 -11 50 -16 59 -5 9 -5 18 0 20 4 2 11 12 15 24 7 23 -26 74
-49 74 -7 0 -44 30 -81 66 -37 37 -81 71 -96 76 -21 8 -36 25 -53 62 -25 56
-87 124 -119 132 -12 3 -64 1 -116 -3 l-95 -8 -3 -38 c-2 -21 -13 -48 -25 -61
-12 -13 -39 -58 -59 -99 -21 -42 -42 -79 -48 -82 -5 -3 -10 -19 -10 -35 0 -16
-5 -32 -10 -35 -6 -3 -20 -25 -31 -48 -64 -129 -83 -262 -54 -382 9 -38 19
-93 21 -121 4 -53 40 -147 77 -198 16 -22 21 -45 21 -95 l1 -66 53 -3 52 -3 0
40 c0 33 3 41 19 41 10 0 36 8 57 17 22 9 75 20 120 23 107 8 211 59 294 144
60 60 64 67 100 150 l22 49 25 -27 c40 -44 137 -83 237 -96 75 -10 111 -10
229 5 136 17 141 17 154 -1 13 -18 16 -17 51 24 20 23 44 42 52 42 19 0 133
54 172 81 28 21 30 21 43 3 8 -11 15 -22 15 -26 1 -22 29 -2 53 37 33 56 34
65 2 65 -28 0 -30 6 -15 45 7 18 7 39 1 63 -10 36 -56 92 -75 92 -6 0 -23 6
-38 14 -59 31 -137 46 -237 46 -79 0 -101 3 -101 14 0 7 -7 19 -15 26 -23 19
-18 28 29 51 24 11 62 36 84 54 33 29 42 32 52 20 15 -18 32 -11 59 26 18 24
20 33 11 44 -10 12 -6 24 16 61 57 92 93 159 94 172 0 7 10 34 22 60 33 74 58
197 65 325 5 92 9 115 18 107 10 -8 21 -1 43 27 l30 39 -28 34 c-26 31 -31 34
-49 23 -12 -7 -23 -13 -25 -13 -2 0 -9 21 -15 48 -7 26 -18 56 -25 67 -8 11
-16 34 -20 50 l-7 30 94 0 c64 0 99 -4 110 -13 14 -12 19 -12 30 0 17 17 125
22 245 12 l82 -6 0 -434 c0 -339 -3 -435 -12 -438 -81 -24 -158 -51 -177 -63
-22 -14 -25 -14 -42 8 -17 23 -18 23 -38 5 -12 -11 -21 -24 -21 -29 0 -6 -7
-18 -16 -28 -17 -19 -11 -39 12 -39 18 0 18 0 -5 -47 -10 -21 -24 -51 -30 -66
-7 -19 -17 -27 -26 -24 -9 4 -24 -11 -44 -44 -23 -37 -37 -49 -55 -49 -27 0
-42 -15 -26 -25 6 -3 19 -24 30 -46 11 -21 25 -39 31 -39 5 0 19 16 31 37 26
43 30 37 47 -77 8 -52 27 -107 64 -185 28 -60 54 -112 57 -115 3 -3 13 -15 24
-27 18 -22 18 -23 -8 -58 -15 -19 -24 -40 -21 -45 4 -6 30 -9 58 -7 49 3 54 1
87 -32 63 -65 199 -162 278 -197 42 -20 90 -42 106 -50 77 -37 222 -58 311
-44 135 22 263 112 306 215 12 30 27 55 33 55 16 0 8 192 -11 265 -33 132
-124 293 -245 436 -26 31 -48 59 -48 61 0 2 87 4 193 3 l192 0 3 -99 c2 -85 0
-100 -15 -111 -17 -13 -17 -14 0 -20 15 -7 17 -28 17 -246 0 -216 -2 -239 -17
-248 -17 -10 -17 -12 -1 -25 16 -12 18 -36 18 -241 0 -205 -2 -229 -17 -241
-17 -13 -17 -15 0 -25 14 -8 17 -26 17 -114 l0 -105 -202 -1 c-112 0 -213 -2
-225 -3 -14 -2 -23 3 -23 11 0 7 -7 13 -15 13 -8 0 -15 -4 -15 -10 0 -7 -155
-10 -445 -10 -290 0 -445 3 -445 10 0 13 -27 13 -32 0 -2 -6 -161 -10 -432
-10 -400 -1 -429 0 -442 17 -13 17 -14 17 -19 -2 -6 -20 -14 -20 -442 -18
-340 2 -438 5 -444 15 -7 10 -12 11 -29 1 -12 -8 -54 -13 -105 -13 l-85 0 0
101 c0 85 3 104 18 115 16 13 16 15 0 28 -16 12 -18 36 -18 236 0 198 2 226
17 243 17 18 17 19 0 28 -15 9 -17 33 -17 244 0 211 2 235 17 244 17 9 17 10
0 28 -15 17 -17 45 -17 243 0 200 2 224 17 235 17 13 17 14 0 32 -15 17 -17
45 -17 248 0 205 2 229 18 241 16 13 16 15 -1 25 -16 9 -18 26 -16 157 0 81 3
150 5 153 8 13 165 7 179 -7z m1580 -4 c18 -20 18 -21 -1 -35 -10 -8 -24 -15
-31 -15 -6 0 -23 -15 -37 -32 l-26 -33 -30 35 -30 35 -30 -35 c-36 -41 -36
-43 -8 -80 27 -37 41 -38 66 -5 25 31 30 31 63 -1 24 -23 29 -24 50 -12 13 7
34 21 45 31 21 18 22 17 29 -5 4 -13 9 -88 12 -168 6 -167 -14 -293 -68 -435
-30 -78 -105 -205 -121 -205 -12 0 -9 13 6 33 12 16 12 22 -2 47 -17 29 -16
30 17 64 l33 34 -27 36 c-30 40 -38 43 -57 21 -7 -9 -19 -22 -25 -30 -17 -18
-16 -33 2 -52 14 -14 14 -17 -1 -34 -16 -17 -19 -18 -34 -4 -16 15 -20 13 -49
-21 -22 -28 -28 -41 -20 -50 8 -10 3 -22 -20 -46 -17 -18 -31 -37 -31 -42 0
-13 49 -76 60 -76 16 0 54 63 52 86 -2 31 21 49 38 29 10 -13 10 -19 -5 -35
-10 -11 -15 -26 -12 -34 10 -26 -80 -91 -168 -121 -33 -11 -105 -18 -105 -9 0
4 7 15 16 25 13 14 13 21 3 37 -10 16 -9 24 8 48 l21 28 -25 33 c-31 41 -46
41 -72 4 -15 -20 -19 -38 -15 -58 4 -21 1 -35 -11 -47 -9 -9 -15 -25 -12 -36
4 -14 1 -17 -12 -12 -100 42 -183 168 -210 324 -16 96 -13 289 7 385 10 45 21
85 25 89 4 4 7 16 7 26 0 16 24 73 36 87 2 2 14 -10 28 -25 l26 -29 30 35 c16
19 30 39 30 44 0 16 -52 66 -68 66 -13 0 -13 2 -1 18 8 9 23 33 33 52 25 46
46 71 71 81 11 4 135 8 276 8 244 1 257 0 274 -19z m1655 -530 l0 -550 -141 0
c-108 0 -140 3 -137 13 3 6 15 17 29 24 23 11 24 16 19 74 -7 84 -29 93 -32
12 -1 -35 -3 -45 -5 -26 -3 25 -10 34 -28 39 -33 8 -45 -2 -46 -39 -1 -34 -3
-31 -14 17 -6 27 -8 28 -46 23 -36 -5 -40 -3 -37 15 2 12 -3 23 -9 25 -13 5
-18 -25 -15 -82 l2 -30 -14 27 c-8 15 -12 36 -9 47 4 15 -1 22 -21 27 -57 14
-75 -40 -24 -71 18 -10 27 -20 20 -23 -7 -2 -19 1 -27 8 -17 14 -37 4 -33 -17
4 -19 65 -28 84 -12 11 9 14 8 14 -1 0 -8 15 -11 43 -10 65 4 74 2 80 -20 5
-20 2 -20 -339 -18 l-344 3 0 538 c0 295 0 542 0 547 0 7 178 10 515 10 l515
0 0 -550z m-2913 -316 c33 -16 74 -61 86 -95 4 -14 -5 -15 -76 -11 -48 2 -88
10 -96 17 -7 7 -14 30 -15 51 -1 32 3 39 24 45 37 11 39 10 77 -7z m1852 -154
c-1 -56 1 -103 3 -106 3 -2 107 -5 232 -5 208 -2 254 -6 226 -24 -6 -4 -15
-17 -21 -28 -5 -12 -15 -30 -21 -40 -11 -14 -10 -19 0 -26 11 -6 4 -21 -27
-62 -23 -30 -41 -57 -41 -61 0 -19 -17 -5 -38 32 -12 22 -26 40 -30 40 -4 0
-16 -14 -26 -32 l-19 -31 -23 28 c-13 16 -25 27 -27 25 -2 -3 -17 -25 -32 -50
-36 -58 -35 -57 -45 -40 -14 21 -12 30 5 30 21 0 19 8 -19 69 l-34 54 -35 -54
c-29 -45 -32 -56 -21 -65 15 -12 19 -34 6 -34 -4 0 -13 9 -20 20 -7 11 -16 20
-21 20 -12 0 -71 -96 -64 -104 4 -3 23 -6 43 -6 46 0 53 -7 34 -36 -9 -13 -13
-27 -11 -31 6 -9 114 -9 123 -1 3 3 -4 21 -15 39 -29 47 -27 59 12 59 18 0 38
5 44 11 7 7 19 9 29 5 16 -6 15 -8 -1 -26 -22 -25 -12 -37 33 -42 l33 -3 -28
-42 c-22 -35 -29 -40 -42 -30 -11 9 -15 9 -18 0 -3 -7 -13 -23 -23 -35 -19
-23 -19 -23 -34 -3 -8 11 -16 18 -19 15 -2 -3 -18 -27 -36 -53 -32 -47 -32
-49 -12 -54 23 -6 27 -23 10 -40 -21 -21 2 -33 60 -33 65 0 74 5 60 31 -9 17
-6 19 36 19 38 0 45 -3 45 -20 0 -18 7 -20 54 -20 30 0 58 -4 61 -10 3 -5 23
-10 45 -10 33 0 37 -3 33 -20 -5 -19 0 -20 62 -20 62 0 67 1 62 20 -5 18 0 20
49 20 59 0 69 14 39 54 -24 32 -18 36 51 36 61 0 65 1 59 20 -6 17 -2 20 29
20 42 0 44 7 13 69 -50 99 -64 109 -87 66 -7 -13 -17 -23 -23 -22 -5 1 -23
-16 -38 -38 -23 -31 -28 -47 -24 -72 4 -20 2 -33 -5 -33 -5 0 -10 4 -10 10 0
12 -32 50 -41 50 -4 0 -20 -20 -35 -44 -42 -67 -58 -73 -84 -31 -12 19 -25 35
-29 35 -3 0 -15 -16 -25 -35 -11 -19 -22 -35 -27 -35 -6 0 -45 56 -57 83 -2 4
8 7 22 7 13 0 28 5 31 10 3 6 35 10 71 10 38 0 64 4 64 11 0 20 -63 107 -75
103 -6 -3 -17 7 -25 21 -16 31 -24 31 -44 3 l-15 -22 -37 38 c-20 20 -34 39
-32 41 2 3 20 5 39 6 18 2 39 6 44 10 8 6 83 13 107 10 4 -1 -1 -16 -12 -33
-11 -18 -20 -36 -20 -40 0 -5 29 -8 65 -8 76 0 78 5 35 70 -25 38 -27 46 -14
53 14 8 14 11 -1 33 -8 13 -14 25 -13 25 2 1 24 2 51 4 26 1 50 4 53 7 9 9
-57 108 -72 108 -11 0 -41 38 -32 41 2 1 23 3 48 5 42 4 49 1 98 -42 125 -110
267 -355 279 -482 l5 -57 -28 44 -27 44 -18 -24 c-10 -13 -19 -29 -19 -35 0
-6 -7 -17 -15 -24 -32 -27 -17 -40 45 -40 57 0 60 -1 60 -25 0 -15 -5 -23 -13
-20 -11 5 -67 -74 -67 -95 0 -6 16 -10 35 -10 28 0 35 -4 35 -19 0 -44 -138
-190 -181 -191 -8 0 -19 -4 -25 -9 -28 -27 -211 -34 -299 -12 -82 21 -239 93
-322 147 -67 45 -185 160 -207 202 -8 16 -26 36 -39 45 -28 18 -122 204 -143
280 -7 27 -16 76 -19 111 -7 60 -6 62 20 74 36 17 63 15 67 -4 2 -12 17 -16
61 -17 33 -1 61 1 63 5 6 9 -55 108 -66 108 -4 0 -10 -7 -14 -15 -9 -24 -21
-18 -42 20 -10 19 -21 35 -24 35 -4 0 -17 -18 -29 -41 -29 -52 -36 -44 -18 19
23 75 61 130 94 134 21 2 27 8 25 23 -1 12 7 26 20 34 33 20 119 50 146 51 22
0 23 -2 21 -100z m-1598 -97 c37 -41 50 -73 29 -73 -5 0 -10 -13 -10 -28 0
-31 32 -68 65 -74 15 -2 23 -16 32 -58 19 -93 11 -256 -12 -220 -5 8 -8 26 -7
41 3 32 -32 79 -58 79 -11 0 -31 -12 -45 -27 -90 -96 -102 -100 -97 -33 2 31
9 48 27 62 17 13 25 30 25 49 0 24 4 29 25 29 24 0 25 3 25 54 l0 55 -37 3
c-27 2 -39 8 -41 21 -3 12 3 17 19 17 28 0 69 37 69 62 0 24 -43 68 -67 68
-10 0 -23 11 -30 25 l-11 25 30 -17 c16 -10 47 -37 69 -60z m-571 -97 c0 -8
-4 -18 -10 -21 -32 -20 11 -95 54 -95 38 0 40 -17 5 -49 -21 -19 -42 -29 -61
-29 -15 1 -30 -1 -33 -3 -2 -3 -7 -42 -11 -87 -7 -81 -6 -83 21 -112 l29 -30
-36 0 c-26 0 -38 -5 -42 -17 -3 -10 -3 38 -1 107 4 109 30 257 60 338 6 17 25
15 25 -2z m1551 -110 c94 -29 149 -75 149 -126 0 -31 -28 -80 -46 -80 -13 0
-12 4 2 31 10 20 12 35 6 41 -12 12 -114 6 -119 -7 -2 -6 10 -32 27 -59 26
-40 33 -46 45 -36 10 8 15 9 15 2 0 -11 -68 -62 -83 -62 -4 0 -1 13 8 30 8 16
15 31 15 35 0 3 -29 5 -65 5 -49 0 -67 -4 -71 -15 -6 -13 -54 -22 -54 -10 0 3
14 29 30 58 34 61 36 67 15 67 -18 0 -18 2 -3 35 15 34 25 32 45 -10 9 -19 20
-35 24 -35 12 0 70 100 64 111 -4 5 -26 9 -51 9 -41 0 -53 7 -37 23 10 10 33
8 84 -7z m-633 -103 c-7 -9 -3 -25 16 -59 14 -26 26 -50 26 -55 0 -5 -31 -9
-69 -9 -52 0 -70 -4 -75 -15 -3 -8 -15 -15 -26 -15 -23 0 -25 -8 -7 -35 8 -11
22 -33 33 -49 l18 -29 -29 7 c-51 13 -85 53 -85 102 0 42 33 100 50 89 5 -3
20 10 34 28 31 40 107 82 118 64 4 -6 2 -17 -4 -24z m310 -85 c-1 -13 15 -48
34 -78 20 -30 38 -68 40 -85 3 -30 2 -30 -62 -41 -81 -15 -170 -17 -170 -5 0
5 16 30 35 55 19 26 43 61 53 79 58 102 74 119 70 75z m-659 -249 c17 -8 30
-17 29 -20 -7 -15 -125 -112 -154 -125 -42 -20 -132 -44 -167 -44 l-28 0 51
61 c27 33 50 64 50 70 0 5 7 21 16 34 l16 25 25 -20 c14 -11 31 -20 38 -20 18
0 67 59 59 71 -3 6 -3 18 1 27 5 14 9 11 20 -14 7 -18 26 -37 44 -45z m-349
51 c0 -5 -9 -10 -20 -10 -18 0 -20 -7 -20 -55 l0 -56 58 3 c39 2 56 7 55 16
-2 6 4 12 12 12 8 0 15 -3 15 -6 0 -7 -29 -45 -75 -95 -34 -38 -36 -39 -77
-30 -42 10 -97 60 -98 89 0 6 -4 12 -9 12 -5 0 -12 23 -15 52 -9 64 0 71 75
62 36 -4 59 -2 63 5 9 14 36 14 36 1z"/>
<path d="M2234 2826 c-16 -20 -37 -36 -46 -36 -9 0 -29 -16 -43 -35 l-27 -34
27 -36 c31 -39 37 -42 55 -20 7 8 18 15 26 15 22 0 27 -20 9 -40 -15 -16 -15
-22 -5 -35 10 -12 10 -18 0 -30 -10 -11 -9 -18 4 -30 8 -9 23 -26 31 -38 l16
-22 26 29 25 30 27 -32 c14 -18 31 -32 38 -32 15 0 53 53 53 73 0 8 8 25 18
37 16 20 19 21 31 6 7 -9 19 -16 25 -16 6 -1 23 -19 39 -41 23 -34 30 -38 46
-29 11 5 23 19 26 30 3 11 11 20 16 20 20 0 6 22 -62 92 l-71 73 -19 -24 c-11
-13 -24 -31 -29 -40 -7 -14 -11 -13 -30 4 l-22 20 -24 -30 c-18 -23 -26 -27
-36 -17 -8 8 -8 12 -1 12 6 0 23 16 37 35 l27 35 -24 33 c-79 109 -77 107 -96
98 -12 -7 -22 -6 -28 0 -8 8 -20 0 -39 -25z"/>
<path d="M2036 2481 c-18 -19 -26 -36 -22 -48 6 -20 -28 -68 -43 -59 -8 5 -61
-54 -61 -69 0 -3 10 -19 22 -35 24 -33 52 -39 62 -14 5 13 9 14 21 4 8 -7 15
-18 15 -26 0 -15 113 -134 127 -134 6 0 22 15 37 34 21 28 24 37 13 48 -40 42
-40 45 -10 83 15 19 33 35 40 35 6 0 21 13 33 30 17 23 26 28 48 24 23 -4 31
1 50 31 l22 35 -21 30 c-32 42 -44 43 -74 4 -22 -29 -29 -33 -41 -23 -12 10
-20 7 -43 -15 -32 -31 -28 -33 -91 49 -19 25 -40 45 -46 45 -5 0 -23 -13 -38
-29z"/>
<path d="M4007 2863 c-4 -3 -8 -29 -9 -57 -1 -50 -2 -51 -5 -8 -2 23 -10 43
-16 43 -24 2 -52 -3 -63 -12 -7 -6 -16 -4 -24 6 -23 27 -58 10 -65 -32 -9 -62
68 -74 88 -13 2 8 3 3 1 -12 l-3 -28 84 0 84 0 3 38 c3 30 5 33 12 17 16 -42
24 -50 52 -50 26 0 29 4 32 36 4 45 -19 69 -49 51 -11 -7 -25 -9 -32 -5 -7 4
-22 6 -35 4 -13 -1 -25 4 -28 13 -7 17 -16 20 -27 9z"/>
<path d="M3721 2624 c-27 -34 -26 -50 4 -79 27 -28 57 -32 75 -10 10 12 15 12
35 -1 25 -16 50 -11 60 14 5 13 8 12 21 -6 18 -26 27 -27 48 -6 19 18 21 85 4
102 -21 21 -48 13 -62 -19 -11 -25 -15 -28 -25 -16 -9 12 -8 16 4 21 8 3 15
10 15 16 0 16 -25 12 -54 -11 -20 -16 -26 -17 -26 -6 0 14 -28 27 -62 27 -9 0
-26 -12 -37 -26z"/>
<path d="M3900 2361 c0 -23 0 -44 0 -48 0 -5 13 -8 29 -9 15 -1 38 -11 50 -22
26 -27 42 -28 72 -3 20 16 22 23 13 39 -7 10 -10 30 -7 44 4 21 0 27 -23 32
-33 9 -54 -12 -48 -47 2 -12 -2 -6 -9 13 -11 28 -20 36 -45 38 -31 3 -32 2
-32 -37z"/>
<path d="M3716 2191 c-17 -18 -17 -20 2 -38 10 -10 27 -23 38 -30 18 -11 18
-12 -3 -12 -12 -1 -25 4 -28 9 -8 13 -25 3 -25 -14 0 -17 61 -27 78 -13 9 7
16 7 24 -1 7 -7 30 -12 51 -12 35 0 39 2 34 21 l-6 21 23 -21 c12 -11 26 -21
31 -21 17 0 44 32 38 46 -3 8 0 14 7 14 8 0 9 -10 5 -31 -6 -26 -4 -30 12 -27
12 2 18 12 18 28 0 36 19 40 25 5 3 -17 11 -30 20 -30 14 0 17 28 11 100 -1
17 -27 21 -33 5 -1 -5 -12 -11 -23 -13 -11 -1 -26 -6 -33 -11 -8 -5 -18 -4
-25 3 -18 18 -41 13 -56 -11 l-14 -22 -9 23 c-5 15 -13 21 -23 17 -10 -4 -15
1 -15 15 0 14 -5 19 -17 17 -15 -3 -17 -12 -14 -53 l3 -50 -22 28 c-12 15 -28
27 -36 27 -8 0 -14 5 -14 10 0 6 7 10 15 10 8 0 15 -4 15 -10 0 -5 5 -10 10
-10 20 0 10 38 -12 44 -32 8 -33 8 -52 -13z"/>
<path d="M270 1821 c0 -6 5 -13 10 -16 6 -3 10 -13 10 -21 0 -11 -9 -9 -33 10
-40 31 -72 33 -87 7 -16 -30 -12 -58 11 -80 l21 -20 -21 -27 c-17 -21 -21 -40
-21 -93 1 -57 2 -64 14 -48 18 23 131 25 140 2 4 -11 -1 -15 -19 -15 -30 0
-32 -15 -5 -30 12 -6 20 -21 20 -35 0 -24 -3 -25 -61 -25 -47 0 -65 4 -75 18
-12 15 -13 10 -14 -35 0 -29 5 -53 10 -53 6 0 10 5 10 10 0 15 127 13 132 -2
2 -6 9 -8 16 -4 17 10 14 263 -4 298 -16 31 -42 48 -75 48 -22 0 -48 25 -49
48 0 21 35 13 79 -18 23 -17 46 -28 51 -25 5 3 9 26 8 51 0 39 -4 47 -25 55
-31 12 -43 11 -43 0z"/>
<path d="M4806 1717 c-21 -27 -24 -41 -21 -87 3 -69 3 -66 17 -52 15 15 138
16 138 2 0 -5 5 -10 10 -10 6 0 10 28 10 65 0 57 -3 67 -27 90 -42 38 -94 35
-127 -8z"/>
<path d="M616 1098 c-33 -47 -8 -133 37 -126 12 2 26 12 32 24 l10 21 19 -24
c25 -34 67 -28 81 11 8 25 6 31 -18 52 -26 23 -27 23 -7 34 11 6 20 15 20 20
0 20 -32 9 -61 -19 l-29 -30 -15 30 c-19 35 -48 38 -69 7z"/>
<path d="M616 588 c-9 -12 -16 -36 -16 -53 0 -61 56 -100 80 -55 6 12 21 20
36 20 17 0 28 -7 31 -20 7 -25 19 -26 31 -2 13 23 3 132 -12 132 -6 0 -22 -18
-36 -39 l-24 -40 -17 40 c-21 45 -49 52 -73 17z"/>
<path d="M3786 198 c-36 -51 -2 -143 44 -118 10 5 22 15 25 20 10 16 65 12 65
-5 0 -21 27 -19 32 3 7 30 -4 122 -14 122 -14 0 -46 -37 -53 -61 -8 -25 -25
-24 -25 2 0 55 -46 78 -74 37z"/>
</g>
</svg>
